<svg width="1200" height="900" viewBox="0 0 1200 900" fill="none" xmlns="http://www.w3.org/2000/svg">
  <defs><linearGradient id="sky" x1="94" y1="34" x2="1092" y2="853" gradientUnits="userSpaceOnUse"><stop stop-color="#BFEAF3"/><stop offset="1" stop-color="#6EAEC0"/></linearGradient><linearGradient id="road" x1="525" y1="524" x2="723" y2="900" gradientUnits="userSpaceOnUse"><stop stop-color="#4A7183"/><stop offset="1" stop-color="#25495C"/></linearGradient><filter id="shadow" x="123" y="258" width="913" height="459" filterUnits="userSpaceOnUse"><feDropShadow dx="18" dy="22" stdDeviation="14" flood-color="#1C4456" flood-opacity=".28"/></filter></defs>
  <rect width="1200" height="900" fill="url(#sky)"/><circle cx="827" cy="173" r="130" fill="#FFD477" opacity=".9"/><path d="M0 615C260 533 562 570 1200 416V900H0V615Z" fill="url(#road)"/><path d="M0 680C361 612 738 644 1200 525" stroke="#F5F1D7" stroke-width="14" stroke-dasharray="60 38" opacity=".92"/>
  <g filter="url(#shadow)"><path d="M242 512V405C242 383 260 365 282 365H652C680 365 702 385 702 411V512H242Z" fill="#FEFEFC"/><path d="M685 414H830C853 414 873 428 884 448L945 542H685V414Z" fill="#FEFEFC"/><path d="M277 365H651V405H277V365Z" fill="#D8EDF0"/><path d="M735 433H820C836 433 849 442 857 456L882 498H735V433Z" fill="#75B9CC"/><path d="M223 494H947V552H223V494Z" fill="#F04E50"/><path d="M223 552H947V585H223V552Z" fill="#D3343E"/><rect x="246" y="321" width="80" height="44" rx="8" fill="#F04E50"/><rect x="264" y="306" width="44" height="18" rx="6" fill="#1D5975"/><path d="M408 409H466V438H493V492H466V519H408V492H381V438H408V409Z" fill="#F04E50"/><circle cx="378" cy="582" r="58" fill="#1C2D3B"/><circle cx="378" cy="582" r="31" fill="#BECED2"/><circle cx="825" cy="582" r="58" fill="#1C2D3B"/><circle cx="825" cy="582" r="31" fill="#BECED2"/><rect x="551" y="436" width="71" height="12" rx="6" fill="#1E5780" opacity=".85"/></g>
  <text x="67" y="808" fill="#E8F4F4" font-family="Arial, sans-serif" font-size="20" font-weight="700" letter-spacing="4">RAPIDCARE AMBULANCE</text>
</svg>
